#!OML:ASF F:\VICON\USERDATA\INSTALL\rory3\rory3.ASF
:FULLY-SPECIFIED
:DEGREES
177
root 3.98158 17.5401 3.48806 18.6712 -14.5277 0.0689962
lowerback -7.06497 3.73692 3.09047
upperback -12.2965 4.862 -0.937653
thorax -8.74408 2.07674 -2.72413
lowerneck -6.16012 12.3047 9.54578
upperneck 24.3287 14.705 4.9538
head 9.03847 8.26939 1.60312
rclavicle 1.6847e-014 1.41137e-014
rhumerus 6.51103 -20.7259 9.86219
rradius 118.947
rwrist -56.02
rhand -7.43992 -48.4149
rfingers 7.12502
rthumb 18.4477 -77.5601
lclavicle 1.6847e-014 1.41137e-014
lhumerus 27.2971 23.9487 -18.855
lradius 38.3787
lwrist 58.2061
lhand -29.0119 -21.187
lfingers 7.12502
lthumb -2.36321 8.77969
rfemur -7.87137 5.09988 -4.50368
rtibia 11.9175
rfoot -45.0596 -8.48571
rtoes 54.9341
lfemur -23.0219 2.94127 -29.698
ltibia 17.7023
lfoot -12.2922 9.66791
ltoes 11.759
178
root 3.98297 17.5387 3.48379 18.6663 -14.6134 -0.0254695
lowerback -7.02275 3.78501 3.17445
upperback -12.3035 4.92658 -0.948081
thorax -8.76506 2.10027 -2.78438
lowerneck -5.8965 12.0284 9.70023
upperneck 24.4368 14.4252 4.52066
head 9.06984 8.1112 1.39786
rclavicle 3.62782e-015 1.49089e-014
rhumerus 6.6066 -20.6187 9.69208
rradius 118.885
rwrist -55.9353
rhand -7.45255 -48.4573
rfingers 7.12502
rthumb 18.4355 -77.6037
lclavicle 3.62782e-015 1.49089e-014
lhumerus 27.4628 23.9845 -18.7438
lradius 38.3799
lwrist 58.085
lhand -28.4413 -20.5441
lfingers 7.12502
lthumb -1.81214 9.42795
rfemur -7.96244 5.10021 -4.42748
rtibia 12.013
rfoot -45.0466 -8.04337
rtoes 55.2643
lfemur -23.1506 2.96828 -29.6174
ltibia 17.9635
lfoot -12.382 9.7722
ltoes 11.7902
179
root 3.98279 17.5393 3.4751 18.6433 -14.7151 -0.0319389
lowerback -6.92575 3.81159 3.08914
upperback -12.3046 4.968 -0.940237
thorax -8.82622 2.12715 -2.73629
lowerneck -6.0443 11.8722 9.51687
upperneck 24.9187 14.1987 4.58151
head 9.23895 8.00469 1.45172
rclavicle -1.33186e-014 1.31198e-014
rhumerus 6.68851 -20.4414 9.60506
rradius 118.795
rwrist -55.9663
rhand -8.07892 -48.463
rfingers 7.12502
rthumb 17.8329 -77.6654
lclavicle -1.33186e-014 1.31198e-014
lhumerus 27.4888 23.8089 -18.769
lradius 38.5014
lwrist 58.374
lhand -28.4717 -20.8
lfingers 7.12502
lthumb -1.84151 9.17181
rfemur -8.11534 5.17384 -4.44959
rtibia 12.1909
rfoot -45.041 -7.86827
rtoes 55.3538
lfemur -23.2517 2.97938 -29.6145
ltibia 18.1311
lfoot -12.4401 9.86242
ltoes 11.9016
180
root 3.98136 17.5398 3.45958 18.6144 -14.7446 -0.0682937
lowerback -6.8452 3.79629 3.01301
upperback -12.2256 4.95365 -0.894403
thorax -8.79305 2.13107 -2.648
lowerneck -6.42573 11.7998 9.23126
upperneck 25.4218 14.0398 4.80078
head 9.44041 7.93559 1.59704
rclavicle 8.19987e-015 1.86858e-014
rhumerus 6.79514 -20.4251 9.50488
rradius 118.662
rwrist -56.0037
rhand -8.72392 -48.4071
rfingers 7.12502
rthumb 17.2122 -77.6648
lclavicle 8.19987e-015 1.86858e-014
lhumerus 27.4073 23.8103 -18.7423
lradius 38.6664
lwrist 58.6614
lhand -28.6016 -20.9681
lfingers 7.12502
lthumb -1.96691 9.00256
rfemur -8.29195 5.26213 -4.39932
rtibia 12.3977
rfoot -45.1428 -7.85296
rtoes 55.3142
lfemur -23.3351 3.09827 -29.587
ltibia 18.2377
lfoot -12.4367 9.80342
ltoes 11.8062
181
root 3.98488 17.5368 3.44907 18.6524 -14.7609 -0.0293706
lowerback -6.93233 3.7723 2.94847
upperback -12.1246 4.91783 -0.882445
thorax -8.63608 2.12496 -2.58841
lowerneck -6.68232 11.6454 9.03164
upperneck 25.6806 13.8234 4.7903
head 9.55739 7.81885 1.62734
rclavicle 3.01656e-014 1.35174e-014
rhumerus 6.90454 -20.5855 9.35423
rradius 118.535
rwrist -55.9885
rhand -8.52214 -48.2408
rfingers 7.12502
rthumb 17.4064 -77.4815
lclavicle 3.01656e-014 1.35174e-014
lhumerus 27.2749 23.9062 -18.7249
lradius 38.8258
lwrist 58.8338
lhand -28.7672 -20.8039
lfingers 7.12502
lthumb -2.12685 9.16525
rfemur -8.50826 4.99547 -4.44829
rtibia 12.5985
rfoot -44.9241 -8.16342
rtoes 55.1036
lfemur -23.489 3.20396 -29.6782
ltibia 18.3564
lfoot -12.462 9.71897
ltoes 11.577
182
root 3.99444 17.531 3.44387 18.6164 -14.757 0.121773
lowerback -6.95404 3.76238 2.89655
upperback -12.0661 4.89975 -0.947093
thorax -8.55616 2.11992 -2.62359
lowerneck -6.57128 11.4149 8.81582
upperneck 25.7136 13.5566 4.73471
head 9.527 7.6705 1.60068
rclavicle -5.43179e-014 -4.05521e-014
rhumerus 6.94258 -20.5502 9.24164
rradius 118.439
rwrist -55.9457
rhand -8.37133 -48.1123
rfingers 7.12502
rthumb 17.5515 -77.34
lclavicle -5.43179e-014 -4.05521e-014
lhumerus 27.1561 23.6957 -18.8547
lradius 39.0562
lwrist 59.2786
lhand -29.9236 -21.1432
lfingers 7.12502
lthumb -3.24367 8.81191
rfemur -8.57576 4.47526 -4.63351
rtibia 12.741
rfoot -44.3964 -8.75544
rtoes 54.8944
lfemur -23.5647 3.18867 -29.884
ltibia 18.5113
lfoot -12.5525 9.6937
ltoes 11.4931
